<svg xmlns="http://www.w3.org/2000/svg" width="24" height="22.557" viewBox="0 0 24 22.557"><path d="M22.834,36.588a.449.449,0,0,1-.3-.111c-.367-.32-9-7.886-11.194-13.754a6.226,6.226,0,1,1,11.5-4.772A6.226,6.226,0,0,1,34.834,20.3c0,.124,0,.247-.012.369C34.8,26.232,23.608,36.061,23.13,36.477A.451.451,0,0,1,22.834,36.588ZM17.059,14.934a5.324,5.324,0,0,0-4.884,7.44c0,.007.006.015.009.022,1.889,5.063,9.094,11.736,10.649,13.136,1.793-1.613,11.086-10.2,11.086-14.878,0-.009,0-.019,0-.028.007-.108.011-.217.011-.327a5.323,5.323,0,0,0-10.646,0c0,.027,0,.053,0,.079l0,.068a.451.451,0,0,1-.129.325.47.47,0,0,1-.651,0,.455.455,0,0,1-.132-.328V20.4c0-.048,0-.1,0-.145A5.329,5.329,0,0,0,17.059,14.934Z" transform="translate(-10.834 -14.031)"/></svg>