<svg xmlns="http://www.w3.org/2000/svg" width="24" height="24" viewBox="0 0 24 24"><path d="M25.871,37.878h0a12,12,0,1,1,12-12A12.014,12.014,0,0,1,25.87,37.878Zm0-23.043a11.043,11.043,0,1,0,0,22.085h0a11.043,11.043,0,0,0,0-22.085Z" transform="translate(-13.87 -13.878)"/><g transform="translate(8.092 3.561)"><path d="M52.269,48.811a3.815,3.815,0,0,1-4.021-3.558.5.5,0,0,1,.991,0,3.061,3.061,0,1,0,3.03-2.626,3.815,3.815,0,0,1-4.021-3.558,3.815,3.815,0,0,1,4.021-3.558,4.24,4.24,0,0,1,3.081,1.271.447.447,0,0,1-.04.658.518.518,0,0,1-.7-.038,3.221,3.221,0,0,0-2.341-.96,2.853,2.853,0,0,0-3.03,2.626,2.853,2.853,0,0,0,3.03,2.626,3.815,3.815,0,0,1,4.021,3.558A3.816,3.816,0,0,1,52.269,48.811Z" transform="translate(-48.248 -33.713)"/><path d="M62.528,45.15a.484.484,0,0,1-.5-.472V28.724a.5.5,0,0,1,.991,0V44.678A.484.484,0,0,1,62.528,45.15Z" transform="translate(-58.617 -28.252)"/></g></svg>