<svg xmlns="http://www.w3.org/2000/svg" width="24" height="24" viewBox="0 0 24 24"><g transform="translate(0 0)"><path d="M25.9,37.872h0a12,12,0,1,1,12-12A12.014,12.014,0,0,1,25.9,37.872Zm0-23.042a11.042,11.042,0,1,0,0,22.085h0a11.042,11.042,0,0,0,0-22.085Z" transform="translate(-13.902 -13.872)"/><path d="M36.908,45.252h0a8.375,8.375,0,1,1,8.375-8.375A8.386,8.386,0,0,1,36.907,45.252Zm0-15.807a7.432,7.432,0,1,0,0,14.863h0a7.432,7.432,0,0,0,0-14.863Z" transform="translate(-24.907 -24.877)"/><path d="M59.344,60.855a1.544,1.544,0,1,1,1.092-.451A1.536,1.536,0,0,1,59.344,60.855Zm0-2.1a.549.549,0,0,0-.391.162.555.555,0,0,0,0,.784.568.568,0,0,0,.782,0,.554.554,0,0,0-.391-.945Z" transform="translate(-47.344 -47.311)"/></g><path d="M65.521,49.615a.5.5,0,0,1-.35-.846l3.42-3.42a.5.5,0,0,1,.7.7l-3.42,3.42A.493.493,0,0,1,65.521,49.615Z" transform="translate(-52.88 -37.761)"/><path d="M51.8,52.265a.494.494,0,0,1-.35-.145l-2.54-2.54a.5.5,0,0,1,.7-.7l2.54,2.54a.5.5,0,0,1-.35.846Z" transform="translate(-40.469 -40.438)"/></svg>