<svg xmlns="http://www.w3.org/2000/svg" width="24" height="16.797" viewBox="0 0 24 16.797"><path d="M19.331,66.617a5.323,5.323,0,1,1,5.323-5.323A5.329,5.329,0,0,1,19.331,66.617Zm0-9.654a4.332,4.332,0,1,0,4.332,4.331A4.336,4.336,0,0,0,19.331,56.963Z" transform="translate(-14.008 -49.82)"/><path d="M76.186,66.617a5.323,5.323,0,1,1,5.323-5.323A5.329,5.329,0,0,1,76.186,66.617Zm0-9.654a4.332,4.332,0,1,0,4.332,4.331A4.336,4.336,0,0,0,76.186,56.963Z" transform="translate(-57.508 -49.82)"/><g transform="translate(0.487)"><path d="M16.471,39.359A.5.5,0,0,1,16,38.7l2.716-7.977a2.668,2.668,0,0,1,3.349-1.548.5.5,0,1,1-.228.964c-1.008-.239-2,.145-2.163.837l-.013.046-2.723,8A.5.5,0,0,1,16.471,39.359Z" transform="translate(-15.975 -29.08)"/><path d="M91.561,39.355a.5.5,0,0,1-.469-.336l-2.737-8.043a1.128,1.128,0,0,0-.7-.743,2.347,2.347,0,0,0-1.466-.095.5.5,0,0,1-.228-.964,3.34,3.34,0,0,1,2.091.151,2.1,2.1,0,0,1,1.258,1.4L92.03,38.7a.5.5,0,0,1-.469.655Z" transform="translate(-69.068 -29.076)"/></g><path d="M57.9,75.039a.49.49,0,0,1-.224-.054,5.015,5.015,0,0,0-2.042-.409,4.261,4.261,0,0,0-1.917.4.5.5,0,1,1-.494-.859,5.151,5.151,0,0,1,2.411-.529,5.9,5.9,0,0,1,2.492.517.5.5,0,0,1-.226.937Z" transform="translate(-43.687 -62.914)"/></svg>